<svg width="24" height="24" viewBox="0 0 24 24" fill="none" xmlns="http://www.w3.org/2000/svg">
<path fill-rule="evenodd" clip-rule="evenodd" d="M11.7826 17.0304C11.7129 17.1002 11.6302 17.1557 11.539 17.1935C11.4479 17.2313 11.3502 17.2507 11.2516 17.2507C11.1529 17.2507 11.0553 17.2313 10.9641 17.1935C10.873 17.1557 10.7903 17.1002 10.7206 17.0304L6.22059 12.5304C6.15074 12.4607 6.09533 12.378 6.05752 12.2868C6.01971 12.1957 6.00025 12.098 6.00025 11.9994C6.00025 11.9007 6.01971 11.8031 6.05752 11.7119C6.09533 11.6208 6.15074 11.5381 6.22059 11.4684L10.7206 6.96839C10.8614 6.82756 11.0524 6.74845 11.2516 6.74845C11.4508 6.74845 11.6418 6.82756 11.7826 6.96839C11.9234 7.10922 12.0025 7.30023 12.0025 7.49939C12.0025 7.69856 11.9234 7.88956 11.7826 8.03039L7.81209 11.9994L11.7826 15.9684C11.8524 16.0381 11.9078 16.1208 11.9457 16.2119C11.9835 16.3031 12.0029 16.4007 12.0029 16.4994C12.0029 16.598 11.9835 16.6957 11.9457 16.7868C11.9078 16.878 11.8524 16.9607 11.7826 17.0304Z" fill="white"/>
<path fill-rule="evenodd" clip-rule="evenodd" d="M18.0015 11.9993C18.0015 12.1982 17.9224 12.3889 17.7818 12.5296C17.6411 12.6702 17.4504 12.7493 17.2515 12.7493L7.50146 12.7493C7.30255 12.7493 7.11179 12.6702 6.97113 12.5296C6.83048 12.3889 6.75146 12.1982 6.75146 11.9993C6.75146 11.8004 6.83048 11.6096 6.97113 11.4689C7.11179 11.3283 7.30255 11.2493 7.50146 11.2493L17.2515 11.2493C17.4504 11.2493 17.6411 11.3283 17.7818 11.4689C17.9224 11.6096 18.0015 11.8004 18.0015 11.9993Z" fill="white"/>
</svg>
