<svg width="24" height="24" viewBox="0 0 24 24" fill="none" xmlns="http://www.w3.org/2000/svg">
<path fill-rule="evenodd" clip-rule="evenodd" d="M12.2189 6.96888C12.2885 6.89903 12.3713 6.84362 12.4624 6.80581C12.5535 6.768 12.6512 6.74854 12.7499 6.74854C12.8485 6.74854 12.9462 6.768 13.0373 6.80581C13.1284 6.84362 13.2112 6.89903 13.2809 6.96888L17.7809 11.4689C17.8507 11.5385 17.9061 11.6213 17.9439 11.7124C17.9818 11.8035 18.0012 11.9012 18.0012 11.9999C18.0012 12.0985 17.9818 12.1962 17.9439 12.2873C17.9061 12.3784 17.8507 12.4612 17.7809 12.5309L13.2809 17.0309C13.14 17.1717 12.949 17.2508 12.7499 17.2508C12.5507 17.2508 12.3597 17.1717 12.2189 17.0309C12.078 16.89 11.9989 16.699 11.9989 16.4999C11.9989 16.3007 12.078 16.1097 12.2189 15.9689L16.1894 11.9999L12.2189 8.03088C12.149 7.96121 12.0936 7.87844 12.0558 7.78733C12.018 7.69621 11.9985 7.59853 11.9985 7.49988C11.9985 7.40122 12.018 7.30354 12.0558 7.21242C12.0936 7.12131 12.149 7.03854 12.2189 6.96888Z" fill="white"/>
<path fill-rule="evenodd" clip-rule="evenodd" d="M6 12C6 11.8011 6.07902 11.6103 6.21967 11.4697C6.36032 11.329 6.55109 11.25 6.75 11.25H16.5C16.6989 11.25 16.8897 11.329 17.0303 11.4697C17.171 11.6103 17.25 11.8011 17.25 12C17.25 12.1989 17.171 12.3897 17.0303 12.5303C16.8897 12.671 16.6989 12.75 16.5 12.75H6.75C6.55109 12.75 6.36032 12.671 6.21967 12.5303C6.07902 12.3897 6 12.1989 6 12Z" fill="white"/>
</svg>
